# xmcd CD database file generated by OrangeCD 5.2
#
# Track frame offsets:
#	150
#	1088
#	23576
#	47644
#	69284
#	92555
#	109225
#	130954
#	152988
#	171584
#	186229
#	203772
#	228995
#
# Disc length: 3228 seconds
#
# Revision: 0
# Processed by: cddbd v1.5.2PL0 Copyright (c) Steve Scherf et al.
# Submitted via: OrangeCD 5.2
#
DISCID=a40c9a0d
DTITLE=Alison Krauss - Radio Shows
DYEAR=2000
DGENRE=Country
TTITLE0=Intro
TTITLE1=So Long So Wrong
TTITLE2=Ride The Wild Turkey
TTITLE3=Find My Way Back To My Heart
TTITLE4=I'll Remember You
TTITLE5=Ghosts In The House
TTITLE6=Intro
TTITLE7=Maybe
TTITLE8=Forget About It
TTITLE9=It Wouldn't Have Made Any Difference
TTITLE10=Instrumental 
TTITLE11=It Don't Matter Know
TTITLE12=Interview
EXTD=
EXTT0=
EXTT1=
EXTT2=
EXTT3=
EXTT4=
EXTT5=
EXTT6=
EXTT7=
EXTT8=
EXTT9=
EXTT10=
EXTT11=
EXTT12=
PLAYORDER=
